<?xml version="1.0" encoding="UTF-8"?>
<svg xmlns="http://www.w3.org/2000/svg" xmlns:xlink="http://www.w3.org/1999/xlink" width="75px" height="38px" viewBox="0 0 82 38" version="1.1">
<g id="surface3">
<path style=" stroke:none;fill-rule:nonzero;fill:rgb(3.137255%,52.156866%,76.078433%);fill-opacity:1;" d="M 12.949219 0 C 5.808594 0 0 5.839844 0 13.015625 C 0 20.191406 5.808594 26.03125 12.949219 26.03125 C 20.085938 26.03125 25.894531 20.191406 25.894531 13.015625 C 25.894531 5.839844 20.085938 0 12.949219 0 Z M 12.949219 2.289062 C 18.851562 2.289062 23.617188 7.078125 23.617188 13.015625 C 23.617188 18.953125 18.851562 23.742188 12.949219 23.742188 C 7.042969 23.742188 2.277344 18.953125 2.277344 13.015625 C 2.277344 7.078125 7.042969 2.289062 12.949219 2.289062 Z M 12.949219 2.289062 "/>
<path style=" stroke:none;fill-rule:nonzero;fill:rgb(0%,0%,0%);fill-opacity:1;" d="M 41 0 C 33.863281 0 28.050781 5.839844 28.050781 13.015625 C 28.050781 20.191406 33.863281 26.03125 41 26.03125 C 48.136719 26.03125 53.949219 20.191406 53.949219 13.015625 C 53.949219 5.839844 48.136719 0 41 0 Z M 41 2.289062 C 46.90625 2.289062 51.667969 7.078125 51.667969 13.015625 C 51.667969 18.953125 46.90625 23.742188 41 23.742188 C 35.09375 23.742188 30.332031 18.953125 30.332031 13.015625 C 30.332031 7.078125 35.09375 2.289062 41 2.289062 Z M 41 2.289062 "/>
<path style=" stroke:none;fill-rule:nonzero;fill:rgb(92.941177%,20%,30.588236%);fill-opacity:1;" d="M 69.050781 0 C 61.914062 0 56.105469 5.839844 56.105469 13.015625 C 56.105469 20.191406 61.914062 26.03125 69.050781 26.03125 C 76.191406 26.03125 82 20.191406 82 13.015625 C 82 5.839844 76.191406 0 69.050781 0 Z M 69.050781 2.289062 C 74.957031 2.289062 79.722656 7.078125 79.722656 13.015625 C 79.722656 18.953125 74.957031 23.742188 69.050781 23.742188 C 63.148438 23.742188 58.382812 18.953125 58.382812 13.015625 C 58.382812 7.078125 63.148438 2.289062 69.050781 2.289062 Z M 69.050781 2.289062 "/>
<path style=" stroke:none;fill-rule:nonzero;fill:rgb(98.431373%,69.411767%,19.607843%);fill-opacity:1;" d="M 26.972656 12.050781 C 19.835938 12.050781 14.027344 17.890625 14.027344 25.066406 C 14.027344 32.242188 19.835938 38.082031 26.972656 38.082031 C 34.109375 38.082031 39.921875 32.242188 39.921875 25.066406 C 39.921875 17.890625 34.109375 12.050781 26.972656 12.050781 Z M 26.972656 14.339844 C 32.878906 14.339844 37.644531 19.128906 37.644531 25.066406 C 37.644531 31.003906 32.878906 35.792969 26.972656 35.792969 C 21.066406 35.792969 16.304688 31.003906 16.304688 25.066406 C 16.304688 19.128906 21.066406 14.339844 26.972656 14.339844 Z M 26.972656 14.339844 "/>
<path style=" stroke:none;fill-rule:nonzero;fill:rgb(10.980392%,54.509807%,23.529412%);fill-opacity:1;" d="M 55.027344 12.050781 C 47.890625 12.050781 42.078125 17.890625 42.078125 25.066406 C 42.078125 32.242188 47.890625 38.082031 55.027344 38.082031 C 62.164062 38.082031 67.972656 32.242188 67.972656 25.066406 C 67.972656 17.890625 62.164062 12.050781 55.027344 12.050781 Z M 55.027344 14.339844 C 60.933594 14.339844 65.695312 19.128906 65.695312 25.066406 C 65.695312 31.003906 60.933594 35.792969 55.027344 35.792969 C 49.121094 35.792969 44.355469 31.003906 44.355469 25.066406 C 44.355469 19.128906 49.121094 14.339844 55.027344 14.339844 Z M 55.027344 14.339844 "/>
<path style=" stroke:none;fill-rule:nonzero;fill:rgb(3.137255%,52.156866%,76.078433%);fill-opacity:1;" d="M 23.304688 5.207031 L 21.484375 6.578125 C 24.332031 10.398438 24.332031 15.632812 21.484375 19.449219 L 23.304688 20.824219 C 26.753906 16.199219 26.753906 9.828125 23.304688 5.207031 Z M 23.304688 5.207031 "/>
<path style=" stroke:none;fill-rule:nonzero;fill:rgb(0%,0%,0%);fill-opacity:1;" d="M 51.359375 5.207031 L 49.535156 6.578125 C 52.382812 10.398438 52.382812 15.632812 49.535156 19.449219 L 51.359375 20.824219 C 54.808594 16.199219 54.808594 9.828125 51.359375 5.207031 Z M 34.597656 21.59375 L 33.230469 23.425781 C 35.472656 25.117188 38.199219 26.03125 41 26.03125 L 41 23.742188 C 38.691406 23.742188 36.445312 22.988281 34.597656 21.59375 Z M 34.597656 21.59375 "/>
<path style=" stroke:none;fill-rule:nonzero;fill:rgb(92.941177%,20%,30.588236%);fill-opacity:1;" d="M 62.652344 21.59375 L 61.285156 23.425781 C 63.523438 25.117188 66.25 26.03125 69.050781 26.03125 L 69.050781 23.742188 C 66.742188 23.742188 64.5 22.988281 62.652344 21.59375 Z M 62.652344 21.59375 "/>
</g>
</svg>
